<svg xmlns="http://www.w3.org/2000/svg" viewBox="0 0 312.21 358.05"><defs><style>.cls-1{fill:#bb1142;}.cls-2{fill:#c9345e;}.cls-3{fill:#cf482f;}.cls-4{fill:#c3273a;}.cls-5{fill:#feca01;}.cls-6{fill:#da6524;}.cls-7{fill:#d32a53;}.cls-8{fill:#7fc445;}.cls-9{fill:#97d662;}</style></defs><title>RaspInst</title><g id="Branding"><polygon class="cls-1" points="101.39 128.27 101.39 110.71 86.12 119.46 101.39 128.27"/><polygon class="cls-1" points="84.2 98.59 84.2 116.14 99.46 107.39 84.2 98.59"/><polygon class="cls-1" points="77.3 93.08 61.95 101.94 77.3 110.69 77.3 93.08"/><polygon class="cls-2" points="62.01 127.32 77.23 118.54 62.01 109.86 62.01 127.32"/><polygon class="cls-1" points="97.16 130.4 81.89 121.52 81.89 139.4 97.16 130.4"/><polygon class="cls-1" points="63.12 130.65 78.34 139.62 78.34 121.8 63.12 130.65"/><polygon class="cls-1" points="91.83 96.77 91.83 83.92 80.66 90.32 91.83 96.77"/><polygon class="cls-1" points="65.24 76.33 65.24 89.95 77.08 83.17 65.24 76.33"/><polygon class="cls-3" points="49.35 145.52 61.95 138.25 49.35 131.06 49.35 145.52"/><polygon class="cls-4" points="59.8 95.35 44.53 86.47 44.53 104.35 59.8 95.35"/><polygon class="cls-3" points="41.13 113.1 54.35 120.89 54.35 105.41 41.13 113.1"/><polygon class="cls-1" points="36.68 111.79 36.68 94.23 21.42 102.98 36.68 111.79"/><polygon class="cls-1" points="52.17 166.84 52.17 149.28 36.9 158.03 52.17 166.84"/><polygon class="cls-3" points="37.78 133.54 37.78 120.78 26.68 127.14 37.78 133.54"/><polygon class="cls-5" points="12.13 104.35 12.13 119.21 25.05 111.81 12.13 104.35"/><polygon class="cls-5" points="26.68 135.51 26.68 150.38 39.61 142.97 26.68 135.51"/><polygon class="cls-6" points="25.11 78.43 36.67 85.24 36.67 71.71 25.11 78.43"/><polygon class="cls-5" points="58.48 85.41 58.48 75.91 50.23 80.65 58.48 85.41"/><polygon class="cls-5" points="8.26 103.34 8.26 93.84 0 98.58 8.26 103.34"/><polygon class="cls-6" points="13.79 81.57 13.79 99.12 29.05 90.37 13.79 81.57"/><polygon class="cls-6" points="54.32 171.12 54.32 188.67 69.58 179.92 54.32 171.12"/><polygon class="cls-1" points="101.5 168.95 101.5 151.39 86.24 160.14 101.5 168.95"/><polygon class="cls-7" points="83.36 141.51 83.36 159.06 98.62 150.32 83.36 141.51"/><polygon class="cls-7" points="78.83 140.46 63.49 149.31 78.83 158.06 78.83 140.46"/><polygon class="cls-1" points="59.38 170.16 74.6 161.38 59.38 152.7 59.38 170.16"/><polygon class="cls-1" points="98.63 170.03 83.36 161.14 83.36 179.03 98.63 170.03"/><polygon class="cls-1" points="65.84 170.03 81.06 179 81.06 161.17 65.84 170.03"/><polygon class="cls-1" points="98.63 208.75 98.63 191.19 83.36 199.94 98.63 208.75"/><polygon class="cls-2" points="81.89 182.19 81.89 199.74 97.15 191 81.89 182.19"/><polygon class="cls-7" points="78.83 179.3 63.49 188.16 78.83 196.91 78.83 179.3"/><polygon class="cls-1" points="62.03 207.45 77.24 198.66 62.01 189.99 62.03 207.45"/><polygon class="cls-7" points="98.63 210.57 83.36 201.69 83.36 219.57 98.63 210.57"/><polygon class="cls-2" points="65.84 210.23 81.06 219.2 81.06 201.38 65.84 210.23"/><polygon class="cls-8" points="147.39 55.73 178.79 37.68 178.72 73.9 178.65 110.12 147.32 91.95 115.99 73.78 147.39 55.73"/><polygon class="cls-9" points="147 55.05 178.4 37 147.07 18.83 115.75 0.66 115.67 36.88 115.6 73.09 147 55.05"/><polygon class="cls-8" points="216.66 55.07 185.26 37.02 185.33 73.24 185.4 109.46 216.73 91.28 248.06 73.11 216.66 55.07"/><polygon class="cls-9" points="217.05 54.39 185.65 36.34 216.98 18.17 248.3 0 248.38 36.22 248.45 72.43 217.05 54.39"/><polygon class="cls-7" points="102.83 91.58 102.83 109.74 118.56 118.81 134.28 109.74 134.28 91.58 118.56 82.51 102.83 91.58"/><polygon class="cls-7" points="134.82 110.41 134.82 128.57 150.54 137.64 166.26 128.57 166.26 110.41 150.54 101.34 134.82 110.41"/><polygon class="cls-7" points="166.3 129.21 166.3 147.36 182.03 156.44 197.75 147.36 197.75 129.21 182.03 120.13 166.3 129.21"/><polygon class="cls-7" points="197.88 111.44 197.88 129.59 213.61 138.67 229.33 129.59 229.33 111.44 213.61 102.36 197.88 111.44"/><polygon class="cls-7" points="229.34 90.04 229.34 108.19 245.06 117.27 260.78 108.19 260.78 90.04 245.06 80.97 229.34 90.04"/><polygon class="cls-7" points="262.67 113.6 262.67 131.75 278.39 140.83 294.11 131.75 294.11 113.6 278.39 104.52 262.67 113.6"/><polygon class="cls-7" points="262.67 148.13 262.67 166.29 278.39 175.37 294.11 166.29 294.11 148.13 278.39 139.06 262.67 148.13"/><polygon class="cls-7" points="261.52 188.81 261.52 206.96 277.24 216.04 292.96 206.96 292.96 188.81 277.24 179.73 261.52 188.81"/><polygon class="cls-7" points="102.83 130.94 102.83 149.1 118.56 158.17 134.28 149.1 134.28 130.94 118.56 121.87 102.83 130.94"/><polygon class="cls-7" points="134.82 149.77 134.82 167.93 150.54 177 166.26 167.93 166.26 149.77 150.54 140.69 134.82 149.77"/><polygon class="cls-7" points="166.3 167.61 166.3 185.76 182.03 194.84 197.75 185.76 197.75 167.61 182.03 158.53 166.3 167.61"/><polygon class="cls-7" points="197.88 149.83 197.88 167.99 213.61 177.06 229.33 167.99 229.33 149.83 213.61 140.75 197.88 149.83"/><polygon class="cls-7" points="229.34 129.4 229.34 147.55 245.06 156.63 260.78 147.55 260.78 129.4 245.06 120.32 229.34 129.4"/><polygon class="cls-7" points="102.83 170.3 102.83 188.45 118.56 197.53 134.28 188.45 134.28 170.3 118.56 161.22 102.83 170.3"/><polygon class="cls-7" points="134.82 189.13 134.82 207.28 150.54 216.36 166.26 207.28 166.26 189.13 150.54 180.05 134.82 189.13"/><polygon class="cls-7" points="166.3 206.96 166.3 225.12 182.03 234.19 197.75 225.12 197.75 206.96 182.03 197.89 166.3 206.96"/><polygon class="cls-7" points="197.88 189.19 197.88 207.34 213.61 216.42 229.33 207.34 229.33 189.19 213.61 180.11 197.88 189.19"/><polygon class="cls-7" points="229.34 167.8 229.34 185.95 245.06 195.03 260.78 185.95 260.78 167.8 245.06 158.72 229.34 167.8"/><polygon class="cls-7" points="102.83 209.66 102.83 227.81 118.56 236.89 134.28 227.81 134.28 209.66 118.56 200.58 102.83 209.66"/><polygon class="cls-7" points="134.82 228.49 134.82 246.64 150.54 255.72 166.26 246.64 166.26 228.49 150.54 219.41 134.82 228.49"/><polygon class="cls-7" points="166.3 246.32 166.3 264.48 182.03 273.55 197.75 264.48 197.75 246.32 182.03 237.25 166.3 246.32"/><polygon class="cls-7" points="197.88 228.55 197.88 246.7 213.61 255.78 229.33 246.7 229.33 228.55 213.61 219.47 197.88 228.55"/><polygon class="cls-7" points="229.34 207.15 229.34 225.31 245.06 234.38 260.78 225.31 260.78 207.15 245.06 198.08 229.34 207.15"/><path class="cls-8" d="M96.12,312.3a15.23,15.23,0,0,1-13.69,15.19l13.69,15.37h-8L73,325.38a13.85,13.85,0,0,1-1.31-.85v18.33H65.56V297H80.84A15.28,15.28,0,0,1,96.12,312.3Zm-24.47,0a9.15,9.15,0,1,0,9.19-9.19H71.65Z"/><path class="cls-8" d="M116.51,312.3a15.36,15.36,0,0,1,15.28,15.28v15.28H116.51a15.19,15.19,0,0,1-15.28-15.28,15.28,15.28,0,0,1,15.28-15.28Zm9.14,15.28a9.12,9.12,0,1,0-9.14,9.19h9.14Z"/><path class="cls-8" d="M146.13,318.44a3.12,3.12,0,0,0-2.2.89,3.05,3.05,0,0,0,0,4.31,3.08,3.08,0,0,0,2.2.89h12.19a9,9,0,0,1,6.52,2.67,8.83,8.83,0,0,1,2.67,6.47,9.12,9.12,0,0,1-9.19,9.19H137v-6.09h21.37a3,3,0,0,0,2.16-.89,3.12,3.12,0,0,0,.89-2.21,3,3,0,0,0-3.05-3H146.13a8.92,8.92,0,0,1-6.51-2.68,8.79,8.79,0,0,1-2.67-6.46,9.12,9.12,0,0,1,9.18-9.19h21.38v6.14Z"/><path class="cls-8" d="M202.85,327.49a15.3,15.3,0,0,1-15.28,15.28,15,15,0,0,1-9.19-3v18.33h-6.09V312.2h15.28a15.36,15.36,0,0,1,15.28,15.29Zm-6.14,0a9.12,9.12,0,0,0-9.14-9.14h-9.19v9.14a9.17,9.17,0,0,0,18.33,0Z"/><path class="cls-8" d="M208.38,297h6.1v45.84h-6.1Z"/><path class="cls-8" d="M235.06,312.3a15.36,15.36,0,0,1,15.28,15.28v15.28H244.2V327.58a9.17,9.17,0,0,0-18.33,0v15.28h-6.09V327.58a15.28,15.28,0,0,1,15.28-15.28Z"/><path class="cls-8" d="M264.68,318.44a3.1,3.1,0,0,0-2.2.89,3.05,3.05,0,0,0,0,4.31,3.06,3.06,0,0,0,2.2.89h12.19a9,9,0,0,1,6.51,2.67,8.8,8.8,0,0,1,2.68,6.47,9.13,9.13,0,0,1-9.19,9.19H255.49v-6.09h21.38a3,3,0,0,0,2.16-.89,3.12,3.12,0,0,0,.89-2.21,3,3,0,0,0-3.05-3H264.68a8.92,8.92,0,0,1-6.51-2.68,8.77,8.77,0,0,1-2.68-6.46,9.13,9.13,0,0,1,9.19-9.19h21.38v6.14Z"/><path class="cls-8" d="M312.21,336.77v6.09h-6.09a15.19,15.19,0,0,1-15.28-15.28V297h6.09V312.3h12.24v6.14H296.93v9.14a9.29,9.29,0,0,0,9.19,9.19Z"/></g></svg>