<svg xmlns="http://www.w3.org/2000/svg" viewBox="0 0 1470.13 891.24"><defs><style>.cls-1{fill:#4d4d4d;}.cls-2{fill:#999;}.cls-3{fill:gray;}.cls-4{fill:#ffcc4d;}.cls-5{fill:#97d662;}.cls-6{fill:#a642e8;}.cls-7{fill:#2f61d1;}.cls-8{fill:#bb1142;}.cls-9{fill:#d34646;}.cls-10{fill:#328fce;}.cls-11{fill:#fff;}</style></defs><title>RaspInst</title><g id="Branding"><polygon class="cls-1" points="1028.99 609.99 991.32 631.93 1029.17 653.75 1028.99 609.99"/><polygon class="cls-1" points="1026.22 700.64 988.35 679 988.79 722.49 1026.22 700.64"/><polygon class="cls-2" points="661.34 17.82 661.34 60.78 698.69 39.37 661.34 17.82"/><polygon class="cls-2" points="707.29 109.82 707.29 152.78 744.64 131.37 707.29 109.82"/><polygon class="cls-2" points="880.96 84.67 880.96 127.63 918.31 106.22 880.96 84.67"/><polygon class="cls-2" points="792.86 62.52 792.86 105.48 830.21 84.07 792.86 62.52"/><polygon class="cls-2" points="840.64 156.21 840.64 199.16 877.99 177.75 840.64 156.21"/><polygon class="cls-2" points="964.66 7.89 964.66 50.85 1002.01 29.44 964.66 7.89"/><polygon class="cls-2" points="665.74 182.65 702.99 204.61 702.99 160.98 665.74 182.65"/><polygon class="cls-2" points="756.54 275.99 793.8 297.95 793.8 254.32 756.54 275.99"/><polygon class="cls-2" points="718.35 91.71 755.6 113.67 755.6 70.04 718.35 91.71"/><polygon class="cls-2" points="759.59 155.65 796.84 177.61 796.84 133.98 759.59 155.65"/><polygon class="cls-2" points="827.1 24.94 875.67 53.56 875.67 -3.31 827.1 24.94"/><polygon class="cls-2" points="741.26 34.9 778.51 56.86 778.51 13.23 741.26 34.9"/><polygon class="cls-3" points="1060.41 248.55 1060.41 171.5 1127.4 209.9 1060.41 248.55"/><polygon class="cls-2" points="944.17 129.41 944.17 176.35 903.36 152.95 944.17 129.41"/><polygon class="cls-2" points="865.26 244.41 865.26 291.35 824.45 267.96 865.26 244.41"/><polygon class="cls-2" points="1016.75 11.5 1057.8 35.18 1016.75 58.59 1016.75 11.5"/><polygon class="cls-2" points="1144.25 96.43 1082.1 60.57 1144.25 25.13 1144.25 96.43"/><polygon class="cls-2" points="933.93 216.5 991.88 182.8 991.88 250.65 933.93 216.5"/><polygon class="cls-2" points="878.76 343.4 936.71 309.7 936.71 377.56 878.76 343.4"/><polygon class="cls-2" points="1190.96 229.28 1150.25 253.27 1150.25 205.61 1190.96 229.28"/><polygon class="cls-1" points="1233.58 63.73 1233.58 29.37 1263.45 46.5 1233.58 63.73"/><polygon class="cls-2" points="1053.11 95.91 1053.11 132.33 1021.44 114.18 1053.11 95.91"/><polygon class="cls-3" points="1395.47 307.56 1361.76 288.11 1395.47 268.89 1395.47 307.56"/><polygon class="cls-3" points="1230.37 113.96 1271.22 90.2 1271.22 138.04 1230.37 113.96"/><polygon class="cls-2" points="1315.82 264.72 1280.46 285.56 1280.46 244.15 1315.82 264.72"/><polygon class="cls-3" points="1344.78 257.18 1344.78 210.21 1385.62 233.62 1344.78 257.18"/><polygon class="cls-3" points="1418.85 825.84 1418.85 778.88 1459.68 802.28 1418.85 825.84"/><polygon class="cls-2" points="1430.83 266.34 1430.83 232.21 1460.51 249.22 1430.83 266.34"/><polygon class="cls-2" points="1409.31 628.18 1409.31 667.94 1374.74 648.13 1409.31 628.18"/><polygon class="cls-2" points="1378.61 760.07 1378.61 820.57 1326.01 790.41 1378.61 760.07"/><polygon class="cls-2" points="1449.54 276.14 1449.54 315.89 1414.98 296.08 1449.54 276.14"/><polygon class="cls-2" points="1449.54 53.3 1449.54 93.06 1414.98 73.25 1449.54 53.3"/><polygon class="cls-2" points="1401.08 21.08 1370.16 39.3 1370.16 3.1 1401.08 21.08"/><polygon class="cls-1" points="1238.56 228.28 1238.56 171.03 1288.34 199.56 1238.56 228.28"/><polygon class="cls-2" points="1448.04 168.5 1448.04 143.09 1470.13 155.75 1448.04 168.5"/><polygon class="cls-1" points="1399.02 104.05 1399.02 150.99 1358.21 127.6 1399.02 104.05"/><polygon class="cls-2" points="1354.15 648.25 1354.15 712.96 1297.88 680.71 1354.15 648.25"/><polygon class="cls-2" points="1429.9 529.72 1429.9 616.85 1354.15 573.42 1429.9 529.72"/><polygon class="cls-2" points="1398.43 509.07 1398.43 462.11 1439.27 485.51 1398.43 509.07"/><polygon class="cls-1" points="1171.19 126.74 1171.19 173.68 1130.38 150.28 1171.19 126.74"/><polygon class="cls-1" points="1130.38 417.77 1130.38 482.25 1074.31 450.12 1130.38 417.77"/><polygon class="cls-1" points="858.24 331.27 858.24 395.75 802.18 363.61 858.24 331.27"/><polygon class="cls-1" points="1295.3 325.07 1336.35 348.75 1295.3 372.16 1295.3 325.07"/><polygon class="cls-1" points="1409.31 452 1340.18 412.12 1409.31 372.69 1409.31 452"/><polygon class="cls-3" points="1184.1 324.84 1244.78 289.55 1244.78 360.6 1184.1 324.84"/><polygon class="cls-2" points="1336.18 490.4 1295.47 514.39 1295.47 466.73 1336.18 490.4"/><polygon class="cls-2" points="1037.88 395.96 1037.88 328.3 1096.7 362.02 1037.88 395.96"/><polygon class="cls-2" points="1180.78 343.63 1180.78 390.57 1139.97 367.17 1180.78 343.63"/><polygon class="cls-3" points="1210.56 397.11 1251.61 420.79 1210.56 444.2 1210.56 397.11"/><polygon class="cls-4" points="1280.79 669.84 1188.6 616.53 1280.89 564.02 1280.79 669.84"/><polygon class="cls-1" points="1098.73 683.91 1139.58 660.15 1139.58 707.99 1098.73 683.91"/><polygon class="cls-2" points="1135.52 751.75 1220.75 702.18 1220.75 801.98 1135.52 751.75"/><polygon class="cls-2" points="1256.25 760.61 1297.1 736.85 1297.1 784.68 1256.25 760.61"/><polygon class="cls-5" points="1278.24 529.2 1144.25 608.17 1144.25 451.26 1278.24 529.2"/><polygon class="cls-2" points="562.65 529.13 572.11 581.4 521.94 563.57 562.65 529.13"/><polygon class="cls-1" points="575.8 816.44 566.35 764.2 616.48 782.01 575.8 816.44"/><polygon class="cls-3" points="557.35 735.08 506.9 716.99 547.86 682.68 557.35 735.08"/><polygon class="cls-6" points="400.15 515.37 517.74 557.54 422.25 637.53 400.15 515.37"/><polygon class="cls-3" points="816.68 551.7 764.42 596.24 752.05 527.85 816.68 551.7"/><polygon class="cls-3" points="784.36 414.97 732.11 459.5 719.73 391.11 784.36 414.97"/><polygon class="cls-2" points="571.21 653.14 611.68 618.24 621.28 671.29 571.21 653.14"/><polygon class="cls-2" points="491.46 752.08 498.38 790.32 461.69 777.28 491.46 752.08"/><polygon class="cls-2" points="387.44 822.63 380.11 782.09 419.01 795.92 387.44 822.63"/><polygon class="cls-2" points="286.73 525.94 349.75 548.53 298.58 591.4 286.73 525.94"/><polygon class="cls-2" points="451.54 669.67 410.86 704.34 401.23 651.1 451.54 669.67"/><polygon class="cls-2" points="471.6 851.78 430.92 886.45 421.28 833.21 471.6 851.78"/><polygon class="cls-2" points="337.03 614.88 372.19 584.57 380.53 630.65 337.03 614.88"/><polygon class="cls-2" points="82.54 570.66 123.03 535.74 132.63 588.82 82.54 570.66"/><polygon class="cls-2" points="294.48 628.22 303.94 680.49 253.77 662.66 294.48 628.22"/><polygon class="cls-3" points="139.83 321.58 151.54 386.31 89.44 364.23 139.83 321.58"/><polygon class="cls-3" points="223.15 604.2 230.03 642.19 193.57 629.23 223.15 604.2"/><polygon class="cls-7" points="75.32 778.29 48.56 630.39 190.49 680.84 75.32 778.29"/><polygon class="cls-2" points="177.3 580.63 167.23 524.96 220.65 543.95 177.3 580.63"/><polygon class="cls-2" points="57.55 522.37 49.54 478.12 92 493.21 57.55 522.37"/><polygon class="cls-8" points="660.77 757.6 782.64 652.52 811.53 812.26 660.77 757.6"/><polygon class="cls-3" points="367.78 702.53 372.89 730.81 345.76 721.16 367.78 702.53"/><polygon class="cls-2" points="188.41 752.74 198.54 808.71 144.83 789.62 188.41 752.74"/><polygon class="cls-2" points="223.01 773.95 213.55 721.71 263.69 739.53 223.01 773.95"/><polygon class="cls-2" points="45.88 844.06 36.43 791.82 86.56 809.64 45.88 844.06"/><polygon class="cls-1" points="30.09 421.62 20.64 369.38 70.77 387.2 30.09 421.62"/><polygon class="cls-9" points="226.88 367.1 251.73 504.45 119.92 457.6 226.88 367.1"/><polygon class="cls-2" points="499.54 523.99 490.09 471.75 540.22 489.57 499.54 523.99"/><polygon class="cls-2" points="389.79 332.01 339.34 313.92 380.3 279.6 389.79 332.01"/><polygon class="cls-3" points="280.66 433.62 330.69 451.56 290.07 485.59 280.66 433.62"/><polygon class="cls-2" points="447.74 443.88 407.06 478.55 397.43 425.31 447.74 443.88"/><polygon class="cls-2" points="315.06 421.96 355.53 387.06 365.13 440.11 315.06 421.96"/><polygon class="cls-2" points="209.19 190.59 218.65 242.86 168.49 225.03 209.19 190.59"/><polygon class="cls-3" points="129.22 203.81 119.77 151.56 169.9 169.38 129.22 203.81"/><polygon class="cls-2" points="70.93 182 20.48 163.91 61.45 129.59 70.93 182"/><polygon class="cls-3" points="45.76 21.2 95.78 39.19 55.11 73.18 45.76 21.2"/><polygon class="cls-2" points="202.31 32 161.63 66.66 152 13.43 202.31 32"/><polygon class="cls-1" points="189.42 120.06 241.67 75 254.07 143.5 189.42 120.06"/><polygon class="cls-2" points="737.45 530.91 699.77 552.86 737.63 574.68 737.45 530.91"/><polygon class="cls-2" points="814.74 449.87 777.07 471.81 814.92 493.63 814.74 449.87"/><polygon class="cls-2" points="614.16 530.91 576.49 552.86 614.34 574.68 614.16 530.91"/><polygon class="cls-2" points="643.25 449.87 605.58 471.81 643.43 493.63 643.25 449.87"/><polygon class="cls-2" points="517.75 655.18 555.39 633.25 517.56 611.44 517.75 655.18"/><polygon class="cls-2" points="608.48 708.95 646.64 730.81 646.25 686.95 608.48 708.95"/><polygon class="cls-2" points="284.37 849.03 246.52 827.35 246.91 870.85 284.37 849.03"/><polygon class="cls-2" points="641.59 530.82 641.62 581.45 685.91 555.65 641.59 530.82"/><polygon class="cls-2" points="686.98 466.2 687.01 516.83 731.3 491.04 686.98 466.2"/><polygon class="cls-2" points="997.72 536.08 997.74 568.98 1026.52 552.22 997.72 536.08"/><polygon class="cls-2" points="681.17 673.03 681.39 629.17 643.16 651.44 681.17 673.03"/><polygon class="cls-2" points="109.49 823.87 81.93 839.92 109.62 855.88 109.49 823.87"/><polygon class="cls-2" points="534.64 876.8 563.85 859.78 534.5 842.86 534.64 876.8"/><polygon class="cls-2" points="922.15 786.72 890.8 768.77 891.13 804.79 922.15 786.72"/><polygon class="cls-2" points="686.47 811.28 686.5 855.14 724.87 832.8 686.47 811.28"/><polygon class="cls-3" points="867.79 868.15 867.99 830.05 834.78 849.39 867.79 868.15"/><polygon class="cls-2" points="780.42 827.22 742.75 849.16 780.6 870.98 780.42 827.22"/><polygon class="cls-1" points="993.55 730 931.97 765.87 993.84 801.53 993.55 730"/><polygon class="cls-2" points="953.03 833.2 925.65 849.14 953.16 865 953.03 833.2"/><polygon class="cls-3" points="485.35 871.67 517.23 853.09 485.19 834.62 485.35 871.67"/><polygon class="cls-2" points="167.05 871.67 198.94 853.09 166.9 834.62 167.05 871.67"/><polygon class="cls-3" points="1040.85 874.33 1072.74 855.76 1040.7 837.29 1040.85 874.33"/><polygon class="cls-2" points="708.97 889.12 709.14 855.81 680.1 872.73 708.97 889.12"/><polygon class="cls-3" points="653.3 809.63 632.92 821.5 653.4 833.3 653.3 809.63"/><polygon class="cls-2" points="1147.34 833.57 1126.97 845.44 1147.44 857.24 1147.34 833.57"/><polygon class="cls-10" points="273.45 841.61 381.27 778.81 272.93 716.37 273.45 841.61"/><polygon class="cls-1" points="1090.41 817.87 1128.06 795.94 1090.23 774.14 1090.41 817.87"/><polygon class="cls-1" points="1246.8 865.93 1284.45 844 1246.61 822.19 1246.8 865.93"/><polygon class="cls-3" points="844.54 584.67 778.22 623.3 844.86 661.71 844.54 584.67"/><polygon class="cls-2" points="1057.07 638.77 1094.72 616.84 1056.89 595.03 1057.07 638.77"/><polygon class="cls-2" points="842.6 702.6 880.77 724.46 880.37 680.6 842.6 702.6"/><polygon class="cls-2" points="1080.62 717.59 1025.23 685.87 1025.81 749.52 1080.62 717.59"/><polygon class="cls-2" points="875.81 532.08 875.85 590.71 927.13 560.84 875.81 532.08"/><polygon class="cls-2" points="844.86 430.29 844.89 488.92 896.18 459.05 844.86 430.29"/><polygon class="cls-2" points="954.92 684.07 955.14 640.21 916.91 662.48 954.92 684.07"/><polygon class="cls-2" points="939.7 598.19 995.12 565.91 939.44 533.81 939.7 598.19"/><polygon class="cls-2" points="1029.12 556.31 1067.29 578.17 1066.89 534.31 1029.12 556.31"/><polygon class="cls-3" points="1002.24 267.88 1002.27 311.75 1040.64 289.4 1002.24 267.88"/><polygon class="cls-2" points="1125.66 584.24 1125.88 540.38 1087.65 562.65 1125.66 584.24"/><polygon class="cls-2" points="188.59 309.72 188.59 266.73 151.21 288.15 188.59 309.72"/><polygon class="cls-2" points="605.58 46.55 568.02 68.22 605.58 89.65 605.58 46.55"/><polygon class="cls-2" points="545.64 127.52 582.89 106.03 545.64 84.78 545.64 127.52"/><polygon class="cls-2" points="80.67 602.44 43.28 580.7 43.28 624.48 80.67 602.44"/><polygon class="cls-2" points="545.79 45.09 545.79 13.65 518.45 29.32 545.79 45.09"/><polygon class="cls-1" points="458.94 15.68 458.94 49.01 487.93 32.4 458.94 15.68"/><polygon class="cls-1" points="349.7 282.55 380.55 264.75 349.7 247.16 349.7 282.55"/><polygon class="cls-1" points="565.39 199.7 596.24 181.9 565.39 164.3 565.39 199.7"/><polygon class="cls-1" points="681.49 282.55 712.34 264.75 681.49 247.16 681.49 282.55"/><polygon class="cls-1" points="511.04 367.35 541.9 349.55 511.04 331.95 511.04 367.35"/><polygon class="cls-3" points="248.72 311.29 211.33 289.55 211.33 333.33 248.72 311.29"/><polygon class="cls-1" points="373.91 116.03 426.38 146.95 426.38 85.5 373.91 116.03"/><polygon class="cls-2" points="506.61 147.94 506.61 104.96 469.24 126.38 506.61 147.94"/><polygon class="cls-3" points="324.28 271.3 324.28 189.7 253.33 230.37 324.28 271.3"/><polygon class="cls-2" points="359.34 184.12 359.34 152.88 332.18 168.45 359.34 184.12"/><polygon class="cls-3" points="295.46 111.4 295.46 147.78 327.1 129.65 295.46 111.4"/><polygon class="cls-2" points="29.86 271.36 29.86 307.74 61.5 289.61 29.86 271.36"/><polygon class="cls-2" points="392.68 24.94 420.98 41.62 420.98 8.48 392.68 24.94"/><polygon class="cls-3" points="471.02 90.14 471.02 66.89 450.8 78.47 471.02 90.14"/><polygon class="cls-2" points="296.27 25.05 296.27 1.8 276.05 13.39 296.27 25.05"/><polygon class="cls-2" points="311.28 48.9 311.28 91.86 348.63 70.45 311.28 48.9"/><polygon class="cls-2" points="292.61 327.14 292.61 370.1 329.96 348.69 292.61 327.14"/><polygon class="cls-2" points="668.89 132.89 668.89 89.91 631.52 111.33 668.89 132.89"/><polygon class="cls-2" points="533.88 229.51 533.88 283.5 580.82 256.6 533.88 229.51"/><polygon class="cls-2" points="475.23 195.18 437.67 216.85 475.23 238.27 475.23 195.18"/><polygon class="cls-1" points="422.64 312.43 459.9 290.94 422.64 269.69 422.64 312.43"/><polygon class="cls-2" points="658.22 203.66 620.84 181.92 620.84 225.69 658.22 203.66"/><polygon class="cls-2" points="753.65 353.8 716.27 332.06 716.27 375.83 753.65 353.8"/><polygon class="cls-1" points="89.08 261.35 126.33 283.31 126.33 239.68 89.08 261.35"/><polygon class="cls-1" points="456.45 419.14 456.45 336.44 384.55 377.66 456.45 419.14"/><polygon class="cls-1" points="631.37 351.06 631.37 268.37 559.46 309.58 631.37 351.06"/><polygon class="cls-1" points="1005.4 519.3 1005.4 436.61 933.5 477.82 1005.4 519.3"/><polygon class="cls-2" points="245.01 350.68 245.01 393.64 282.36 372.23 245.01 350.68"/><polygon class="cls-2" points="445.17 727.97 407.6 749.64 445.17 771.07 445.17 727.97"/><polygon class="cls-2" points="477.92 436.68 515.15 415.15 477.88 393.94 477.92 436.68"/><polygon class="cls-2" points="605.5 380.14 568.11 358.39 568.11 402.17 605.5 380.14"/><polygon class="cls-2" points="522.31 441.1 559.57 463.05 559.57 419.43 522.31 441.1"/><polygon class="cls-2" points="639.59 402.03 676.85 423.98 676.85 380.36 639.59 402.03"/><path class="cls-11" d="M740.57,723.11a1.93,1.93,0,0,1,0-3.86h8.13v-8.14a1.93,1.93,0,0,1,3.86,0v8.14h8.14a1.93,1.93,0,0,1,0,3.86h-8.14v8.13a1.93,1.93,0,1,1-3.86,0v-8.13ZM785,761.32c-6-10.6-16.45-20.16-28.45-22.29a19.64,19.64,0,1,0-11.22-.06h0c-11.62,1.93-21.83,13.07-28,23.09.44.53,33.16,19.2,33.16,19.2Z"/><g id="Group_21" data-name="Group 21"><path id="Path_57" data-name="Path 57" class="cls-11" d="M1160.37,541.41l30,17.37,29.45-17.06a37.82,37.82,0,0,0-25.26-18.08,16.85,16.85,0,1,0-9.62,0h0C1175,525.25,1164.86,531.36,1160.37,541.41Z"/></g><path class="cls-11" d="M446.36,565.69a7.13,7.13,0,0,0-7.13,7.13h0a7.13,7.13,0,0,0,7.13,7.14h0a7.14,7.14,0,1,0,0-14.27Z"/><path class="cls-11" d="M463.8,564.17a12,12,0,0,0-.74-4,7.06,7.06,0,0,0-4.06-4.06,12,12,0,0,0-4-.74c-2.26-.1-2.93-.12-8.65-.12s-6.39,0-8.65.12a12,12,0,0,0-4,.74,7.09,7.09,0,0,0-4.06,4.06,12,12,0,0,0-.74,4c-.1,2.26-.12,2.94-.12,8.65s0,6.4.12,8.65a12,12,0,0,0,.74,4,7.09,7.09,0,0,0,4.06,4.06,12,12,0,0,0,4,.74c2.26.1,2.94.12,8.65.12s6.4,0,8.65-.12a12,12,0,0,0,4-.74,7.06,7.06,0,0,0,4.06-4.06,12,12,0,0,0,.74-4c.1-2.26.13-2.94.13-8.65S463.9,566.42,463.8,564.17Zm-6.43,8.66h0a11,11,0,1,1-11-11,11,11,0,0,1,11,11Zm3-11.44a2.55,2.55,0,0,1-2.56,2.57h0a2.57,2.57,0,1,1,2.57-2.57Z"/><rect class="cls-11" x="289.88" y="765.22" width="10.77" height="34.81"/><path class="cls-11" d="M295.22,747.81a6.43,6.43,0,0,0-6.13,6.13h0a6.44,6.44,0,0,0,6.13,6.72h0a6.43,6.43,0,0,0,0-12.85Z"/><path class="cls-11" d="M341,800V778c0-9.32-5.28-13.83-12.67-13.83a12.14,12.14,0,0,0-10.49,5.75v-4.69H307.54V800h10.33V781.75c0-4.89,2.26-7.81,6.57-7.81,3.95,0,5.87,2.8,5.87,7.81V800Z"/><path class="cls-11" d="M183.42,442.92l0,5.69h13.4a13.15,13.15,0,0,1-13,11.18h0a15.59,15.59,0,0,1-11.43-26.18h0a15.58,15.58,0,0,1,22-.84l4.4-3.79a21.34,21.34,0,0,0-15-6.15h0a21.36,21.36,0,0,0-21.36,21.37h0a21.36,21.36,0,0,0,21.36,21.36h0c11.35,0,19.52-8.64,19.52-20.43l0-2.21Z"/><polygon class="cls-11" points="231.84 443.14 223.65 443.14 223.65 434.94 218.42 434.94 218.42 443.15 210.22 443.15 210.22 448.38 218.42 448.38 218.42 456.59 223.65 456.59 223.65 448.39 231.85 448.39 231.84 443.14"/><path class="cls-11" d="M108.78,689.29h-6.6c-2.32,0-2.8,1-2.8,3.35v5.8h9.39l-.91,10.19H99.38v30.46H87.23V708.75H80.9V698.43h6.33v-8.14c0-7.64,4.08-11.62,13.13-11.62h8.42Z"/><path class="cls-11" d="M1249.63,632.57a3.61,3.61,0,0,0-1.11,2.68A3.8,3.8,0,0,0,1255,638a3.65,3.65,0,0,0,1.13-2.73,3.57,3.57,0,0,0-1.13-2.68A3.82,3.82,0,0,0,1249.63,632.57Z"/><path class="cls-11" d="M1265.53,608a10.5,10.5,0,0,0-.55-3.28,9.94,9.94,0,0,0-9.24-6.56,10.06,10.06,0,0,0-3.31.57,9.57,9.57,0,0,0-5.62,5,8.5,8.5,0,0,0-.94,3.83v1.76l5.48-1.79a5.12,5.12,0,0,1,.34-1.49,4.23,4.23,0,0,1,2.53-2.23,4.55,4.55,0,0,1,1.47-.27,4.45,4.45,0,0,1,1.89.45,4.34,4.34,0,0,1,2.25,2.52,4.45,4.45,0,0,1,.24,1.45,4.54,4.54,0,0,1-.45,1.91,14.36,14.36,0,0,1-2.88,3.78,20.29,20.29,0,0,0-6.25,7.51,12.83,12.83,0,0,0-1.37,5.57h5.41a7.71,7.71,0,0,1,.81-3.23,15.6,15.6,0,0,1,3.84-5,17.87,17.87,0,0,0,5.35-6.27h0A9.83,9.83,0,0,0,1265.53,608Z"/></g></svg>